/* XPM */
static char *_bab10a08de14b5a837b209d739af01aMl9ZewLtfuz1T1o2[] = {
/* columns rows colors chars-per-pixel */
"32 32 3 1 ",
"  c None",
". c black",
"X c #e0e63d",
/* pixels */
"              ....              ",
"          ....XXXX....          ",
"        ..XXXXXXXXXXXX..        ",
"       .XXXXXXXXXXXXXXXX.       ",
"     ..XXXXXXXXXXXXXXXXXX..     ",
"    .XXXXXXXXXXXXXXXXXXXXXX.    ",
"    .XXXXXXXXXXXXXXXXXXXXXX.    ",
"   .XXXXXXXXXXXXXXXXXXXXXXXX.   ",
"  .XXXXXXXXXXXXXXXXXXXXXXXX.    ",
"  .XXXXXXXXXXXXXXXXXXXXXX..     ",
" .XXXXXXXXXXXXXXXXXXXXXX.       ",
" .XXXXXXXXXXXXXXXXXXXX..        ",
" .XXXXXXXXXXXXXXXXXXX.          ",
".XXXXXXXXXXXXXXXXXX..           ",
".XXXXXXXXXXXXXXXXX.             ",
".XXXXXXXXXXXXXXX..              ",
".XXXXXXXXXXXXXX.                ",
".XXXXXXXXXXXXXXX..              ",
".XXXXXXXXXXXXXXXXX..            ",
" .XXXXXXXXXXXXXXXXXX..          ",
" .XXXXXXXXXXXXXXXXXXXX.         ",
" .XXXXXXXXXXXXXXXXXXXXX..       ",
"  .XXXXXXXXXXXXXXXXXXXXXX..     ",
"  .XXXXXXXXXXXXXXXXXXXXXXXX.    ",
"   .XXXXXXXXXXXXXXXXXXXXXXXX.   ",
"    .XXXXXXXXXXXXXXXXXXXXXX.    ",
"    .XXXXXXXXXXXXXXXXXXXXXX.    ",
"     ..XXXXXXXXXXXXXXXXXX..     ",
"       .XXXXXXXXXXXXXXXX.       ",
"        ..XXXXXXXXXXXX..        ",
"          ....XXXX....          ",
"              ....              "
};